<svg xmlns="http://www.w3.org/2000/svg" viewBox="0 0 800 600"><defs><linearGradient id="seaGrad" x1="0%" y1="0%" x2="0%" y2="100%"><stop offset="0%" style="stop-color:#1a3a52;stop-opacity:1" /><stop offset="100%" style="stop-color:#0d1f2d;stop-opacity:1" /></linearGradient><linearGradient id="skyGrad" x1="0%" y1="0%" x2="0%" y2="100%"><stop offset="0%" style="stop-color:#2d5a7b;stop-opacity:1" /><stop offset="100%" style="stop-color:#4a7c9e;stop-opacity:1" /></linearGradient></defs><rect width="800" height="300" fill="url(#skyGrad)"/><rect y="300" width="800" height="300" fill="url(#seaGrad)"/><circle cx="700" cy="80" r="40" fill="#fdb813" opacity="0.8"/><ellipse cx="400" cy="400" rx="120" ry="80" fill="#2d5a52" opacity="0.6"/><circle cx="400" cy="280" r="45" fill="#8b4513"/><circle cx="385" cy="265" r="8" fill="#000"/><circle cx="415" cy="265" r="8" fill="#000"/><path d="M 400 280 L 395 295 L 405 295 Z" fill="#000"/><ellipse cx="360" cy="310" rx="25" ry="15" fill="#d4a574"/><ellipse cx="440" cy="310" rx="25" ry="15" fill="#d4a574"/><path d="M 380 320 Q 390 340 400 335 Q 410 340 420 320" stroke="#d4a574" stroke-width="3" fill="none"/><circle cx="200" cy="450" r="30" fill="#c0a080" opacity="0.7"/><circle cx="550" cy="480" r="25" fill="#c0a080" opacity="0.7"/><circle cx="650" cy="520" r="20" fill="#c0a080" opacity="0.7"/><circle cx="300" cy="520" r="22" fill="#c0a080" opacity="0.7"/><g opacity="0.4"><circle cx="100" cy="200" r="3" fill="#fff"/><circle cx="150" cy="150" r="2" fill="#fff"/><circle cx="250" cy="180" r="2.5" fill="#fff"/><circle cx="320" cy="120" r="2" fill="#fff"/><circle cx="650" cy="140" r="2.5" fill="#fff"/></g></svg>