<svg xmlns="http://www.w3.org/2000/svg" viewBox="0 0 800 600"><defs><linearGradient id="waterGrad" x1="0%" y1="0%" x2="0%" y2="100%"><stop offset="0%" style="stop-color:#4a90e2;stop-opacity:1" /><stop offset="100%" style="stop-color:#1a3a5c;stop-opacity:1" /></linearGradient></defs><rect width="800" height="600" fill="#87ceeb" /><rect y="300" width="800" height="300" fill="url(#waterGrad)" /><circle cx="400" cy="350" r="40" fill="#8b4513" stroke="#654321" stroke-width="2" /><text x="400" y="360" text-anchor="middle" font-size="20" fill="white">僕</text><g id="rockD"><rect x="600" y="280" width="120" height="80" rx="10" fill="#696969" stroke="#555" stroke-width="2" /></g><text x="660" y="400" text-anchor="middle" font-size="16" fill="#333">岩場D</text><g id="attempts"><line x1="100" y1="100" x2="700" y2="100" stroke="#333" stroke-width="2" /><circle cx="120" cy="100" r="6" fill="#e74c3c" /><circle cx="150" cy="100" r="6" fill="#e74c3c" /><circle cx="180" cy="100" r="6" fill="#27ae60" /><circle cx="210" cy="100" r="6" fill="#e74c3c" /><circle cx="240" cy="100" r="6" fill="#e74c3c" /><circle cx="270" cy="100" r="6" fill="#27ae60" /><circle cx="300" cy="100" r="6" fill="#e74c3c" /><circle cx="330" cy="100" r="6" fill="#e74c3c" /><circle cx="360" cy="100" r="6" fill="#27ae60" /><circle cx="390" cy="100" r="6" fill="#e74c3c" /><circle cx="420" cy="100" r="6" fill="#e74c3c" /><circle cx="450" cy="100" r="6" fill="#27ae60" /><circle cx="480" cy="100" r="6" fill="#e74c3c" /><circle cx="510" cy="100" r="6" fill="#e74c3c" /><circle cx="540" cy="100" r="6" fill="#e74c3c" /><circle cx="570" cy="100" r="6" fill="#e74c3c" /><circle cx="600" cy="100" r="6" fill="#e74c3c" /><circle cx="630" cy="100" r="6" fill="#e74c3c" /><circle cx="660" cy="100" r="6" fill="#e74c3c" /><circle cx="690" cy="100" r="6" fill="#e74c3c" /></g><text x="50" y="80" font-size="14" fill="#333">岩場D潜り（30回）</text><text x="120" y="150" font-size="12" fill="#666">獲れた（6回）</text><circle cx="120" cy="140" r="4" fill="#27ae60" /><text x="300" y="150" font-size="12" fill="#666">獲れず（24回）</text><circle cx="360" cy="140" r="4" fill="#e74c3c" /><g id="belly"><rect x="100" y="200" width="600" height="60" rx="5" fill="#f0f0f0" stroke="#999" stroke-width="2" /><rect x="100" y="200" width="0" height="60" rx="5" fill="#e74c3c" /><text x="400" y="235" text-anchor="middle" font-size="16" fill="#333">おなか：0（最後）</text></g><text x="50" y="520" font-size="14" fill="#333">結果：岩場Dは今、獲物が少ない</text><text x="50" y="550" font-size="14" fill="#333">次：別の岩場を試す必要がある</text></svg>